# xmcd
#
# Track frame offsets: 
#        150
#        10545
#        19780
#        32366
#        44849
#        56936
#        68147
#        81308
#        93956
#        105218
#        120084
#        134815
#        145518
#        162085
#        178724
#        194385
#        207748
#        239774
#        263914
#        277272
#        294982
#        314410
#
# Disc length: 4426 seconds
#
# Revision: 2
# Processed by: cddbd v1.5.2PL0 Copyright (c) Steve Scherf et al.
# Submitted via: ExactAudioCopy v0.99pb5
#
DISCID=42114816
DTITLE=Big Joe Turner - Big Joe Is Here and Big Joe Rides Again
DYEAR=2002
DGENRE=Blues
TTITLE0=Wee Baby Blues - Big Joe is Here
TTITLE1=Rock a While
TTITLE2=Baby I Still wan't You
TTITLE3=The Chill is On
TTITLE4=Poor Lover's Blues
TTITLE5=Don't You Cry
TTITLE6=Ti-Ri-Lee
TTITLE7=Married Woman
TTITLE8=Midnight Cannonball
TTITLE9=I'll Never Stop Loving You
TTITLE10=After My Laughter Came Tears
TTITLE11=Bump Miss Susie
TTITLE12=Switchin' in the Kitchen - Big Joe Rides Again
TTITLE13=Nobody in Mind
TTITLE14=Until the Real Thing Comes Along
TTITLE15=I Get the Blues When it Rains
TTITLE16=Rebecca
TTITLE17=When I Was Young
TTITLE18=Don't You Make Me High
TTITLE19=Time After Time
TTITLE20=Pennies From Heaven
TTITLE21=Here Comes Your Iceman
EXTD=
EXTT0=
EXTT1=
EXTT2=
EXTT3=
EXTT4=
EXTT5=
EXTT6=
EXTT7=
EXTT8=
EXTT9=
EXTT10=
EXTT11=
EXTT12=
EXTT13=
EXTT14=
EXTT15=
EXTT16=
EXTT17=
EXTT18=
EXTT19=
EXTT20=
EXTT21=
PLAYORDER=
